<svg width="575" height="977" viewBox="0 0 575 977" fill="none" xmlns="http://www.w3.org/2000/svg">
<path d="M522.013 294.368H51V387.363H522.013V294.368Z" fill="#E6E6E6"/>
<path d="M522.013 147.426H51V240.421H522.013V147.426Z" fill="#E6E6E6"/>
<path d="M522.013 0H51V92.9949H522.013V0Z" fill="#E6E6E6"/>
<path d="M511.722 10.2913V82.7034H61.291V10.2913H511.722Z" fill="white" stroke="black" stroke-width="0.5"/>
<path d="M511.722 158.042V230.454H61.291V158.042H511.722Z" fill="white" stroke="black" stroke-width="0.5"/>
<path d="M511.722 304.66V377.072H61.291V304.66H511.722Z" fill="white" stroke="black" stroke-width="0.5"/>
<path d="M128.044 45.8936C128.044 61.0968 115.72 73.4213 100.517 73.4213C85.3136 73.4213 72.989 61.0968 72.989 45.8936C72.989 30.6905 85.3136 18.366 100.517 18.366C115.72 18.366 128.044 30.6905 128.044 45.8936Z" fill="#1DA1F2" stroke="black" stroke-width="0.5"/>
<path d="M167.192 40.8127V35.274H440.845V40.8127H167.192Z" fill="#1DA1F2" stroke="black" stroke-width="0.5"/>
<path d="M167.192 56.5131V50.9745H440.845V56.5131H167.192Z" fill="#1DA1F2" stroke="black" stroke-width="0.5"/>
<path d="M128.305 194.527C128.305 209.73 115.981 222.055 100.778 222.055C85.5746 222.055 73.25 209.73 73.25 194.527C73.25 179.324 85.5746 167 100.778 167C115.981 167 128.305 179.324 128.305 194.527Z" stroke="black" stroke-width="0.5"/>
<path d="M167.453 189.446V183.908H441.106V189.446H167.453Z" stroke="black" stroke-width="0.5"/>
<path d="M167.453 205.147V199.608H441.106V205.147H167.453Z" stroke="black" stroke-width="0.5"/>
<path d="M128.305 341.47C128.305 356.673 115.981 368.997 100.778 368.997C85.5746 368.997 73.25 356.673 73.25 341.47C73.25 326.266 85.5746 313.942 100.778 313.942C115.981 313.942 128.305 326.266 128.305 341.47Z" stroke="black" stroke-width="0.5"/>
<path d="M167.192 336.389V330.85H440.845V336.389H167.192Z" stroke="black" stroke-width="0.5"/>
<path d="M167.192 352.089V346.551H440.845V352.089H167.192Z" stroke="black" stroke-width="0.5"/>
<path d="M514.307 914.886H410.307V974.886H514.307V914.886Z" fill="#1DA1F2"/>
<path d="M305.587 973.093L305.584 973.092C304.067 972.509 302.732 971.533 301.717 970.263C299.935 967.786 300.299 964.3 301.226 961.146C302.942 955.308 307.628 947.663 313.637 941.933C319.659 936.19 326.866 932.501 333.644 934.245C336.171 935.019 338.586 936.122 340.825 937.526L340.854 937.544L340.885 937.558C341.337 937.763 341.726 938.086 342.009 938.493C342.211 939.03 342.236 939.618 342.078 940.17L342.071 940.194L342.066 940.218C339.691 953.188 332.821 964.906 322.664 973.315L322.647 973.329L322.632 973.345C322.079 973.891 321.418 974.318 320.692 974.596C319.966 974.875 319.19 975 318.413 974.964L318.381 974.963L318.349 974.966C314.008 975.321 309.643 974.68 305.587 973.093Z" fill="white" stroke="black"/>
<path d="M448.768 916.181L448.761 916.173L448.754 916.166C443.982 911.06 438.632 903.538 437.521 896.575C437.03 893.498 437.604 891.449 438.845 889.765C440.116 888.04 442.107 886.662 444.573 884.988L444.573 884.988C444.936 884.741 445.52 884.25 446.183 883.681C446.354 883.535 446.531 883.382 446.714 883.224C447.252 882.761 447.832 882.261 448.414 881.777C449.193 881.127 449.96 880.518 450.608 880.074C450.933 879.852 451.216 879.68 451.449 879.566C451.7 879.444 451.828 879.421 451.865 879.422L451.865 879.422C452.379 879.437 452.985 879.75 453.665 880.361C454.334 880.962 455.009 881.792 455.658 882.709C456.305 883.622 456.914 884.601 457.453 885.492C457.579 885.7 457.702 885.905 457.821 886.102C458.205 886.742 458.549 887.315 458.829 887.73C463.329 894.427 467.197 901.748 467.759 909.837C467.91 912.012 467.715 914.334 467.022 916.369C466.331 918.397 465.156 920.11 463.36 921.136C462.137 921.751 460.791 922.083 459.422 922.106C458.05 922.13 456.69 921.842 455.444 921.266C452.888 920.056 450.613 918.324 448.768 916.181Z" fill="white" stroke="black"/>
<path d="M384.267 713.023L383.357 713.357C383.467 714.395 383.428 716.208 383.247 718.73C383.066 721.24 382.745 724.421 382.303 728.172C381.419 735.675 380.05 745.447 378.342 756.689C374.926 779.173 370.154 807.52 365.196 835.315C360.237 863.109 355.092 890.348 350.929 910.613C348.847 920.746 347.011 929.131 345.568 934.968C344.846 937.889 344.225 940.161 343.722 941.694C343.47 942.463 343.253 943.027 343.075 943.39C343.008 943.524 342.954 943.618 342.912 943.679C332.871 942.788 322.89 941.31 313.021 939.254C312.992 939.125 312.964 938.928 312.941 938.654C312.888 938.037 312.865 937.115 312.873 935.898C312.889 933.468 313.027 929.915 313.271 925.392C313.758 916.348 314.669 903.455 315.874 887.979C318.285 857.029 321.876 815.765 325.617 774.345C329.358 732.925 333.251 691.35 336.266 659.781C339.284 628.191 341.42 606.657 341.649 605.279C342.515 600.086 342.779 592.841 343.004 586.694C343.017 586.342 343.029 585.994 343.042 585.649C343.16 582.46 343.275 579.634 343.469 577.612C343.566 576.597 343.681 575.811 343.819 575.291C343.881 575.054 343.941 574.902 343.989 574.815C352.91 575.27 361.656 575.422 370.363 575.572C371.805 575.597 373.247 575.622 374.687 575.649C384.827 575.834 394.95 576.087 405.301 576.884C413.493 582.99 421.012 590.516 424.825 599.893C427.537 606.563 427.806 613.95 428.063 621.266L428.073 621.55L428.322 621.687C429.489 622.329 430.731 623.859 432.009 626.301C433.277 628.722 434.542 631.96 435.793 635.909C438.296 643.806 440.725 654.482 443.02 667.006C447.609 692.05 451.648 724.425 454.657 756.591C457.665 788.757 459.641 820.701 460.104 844.882C460.336 856.975 460.189 867.114 459.606 874.364C459.314 877.993 458.914 880.877 458.405 882.916C458.15 883.937 457.873 884.723 457.58 885.278C457.28 885.847 457.005 886.093 456.799 886.17L456.789 886.173L456.78 886.177C449.31 889.309 442.833 894.415 438.044 900.945C437.785 901.03 437.543 900.995 437.281 900.837C436.951 900.638 436.582 900.233 436.187 899.567C435.401 898.241 434.628 896.074 433.855 893.158C432.314 887.342 430.821 878.725 429.182 868.356C428.61 864.731 428.02 860.894 427.404 856.892C424.502 838.016 421.032 815.452 416.138 794.047C407.14 754.695 389.349 720.476 384.267 713.023ZM342.845 943.761C342.845 943.76 342.849 943.756 342.858 943.749C342.85 943.758 342.846 943.761 342.845 943.761ZM344.031 574.751C344.031 574.751 344.03 574.753 344.027 574.755C344.03 574.752 344.031 574.751 344.031 574.751Z" fill="black" stroke="black"/>
<path d="M574.081 976.704H0V974.522H574.476L574.081 976.704Z" fill="#3F3D56"/>
<path d="M400.35 417.19C389.538 398.92 368.146 398.069 368.146 398.069C368.146 398.069 347.301 395.403 333.929 423.228C321.466 449.164 304.264 474.205 331.16 480.276L336.018 465.155L339.027 481.402C342.856 481.677 346.698 481.743 350.535 481.598C379.338 480.669 406.769 481.871 405.886 471.535C404.711 457.795 410.754 434.769 400.35 417.19Z" fill="black"/>
<path d="M360.462 479.437C360.514 481.494 360.499 483.663 359.477 485.448C357.451 488.987 352.506 489.517 349.531 492.306C346.403 495.24 346.049 500.001 345.9 504.287C345.744 508.768 345.612 513.396 347.247 517.57C348.248 519.87 349.515 522.045 351.02 524.052C352.836 526.67 354.669 529.276 356.518 531.871C357.506 533.332 358.607 534.714 359.811 536.003C363.124 539.377 367.668 541.245 372.205 542.578C375.136 543.439 378.301 544.11 381.21 543.174C383.134 542.423 384.908 541.332 386.446 539.954C388.695 538.342 390.692 536.406 392.374 534.209C394.816 530.666 395.492 526.231 395.998 521.958C397.495 509.322 398.077 496.594 397.741 483.874C397.802 482.488 397.554 481.106 397.014 479.828C395.508 476.887 391.473 476.259 389.347 473.729C387.53 471.566 387.456 468.479 387.471 465.653L387.511 458.461C387.574 457.855 387.452 457.244 387.161 456.709C386.898 456.42 386.58 456.187 386.226 456.022C385.872 455.857 385.488 455.763 385.098 455.746C380.628 455.004 376.096 454.701 371.567 454.841C367.895 454.953 360.849 454.646 357.674 456.691C354.792 458.547 358.401 463.675 359.068 466.555C359.966 470.791 360.433 475.107 360.462 479.437Z" fill="white"/>
<path d="M368.89 467.086C384.946 467.086 397.961 454.071 397.961 438.015C397.961 421.96 384.946 408.944 368.89 408.944C352.835 408.944 339.819 421.96 339.819 438.015C339.819 454.071 352.835 467.086 368.89 467.086Z" fill="white"/>
<path d="M361.83 501.037L361.835 501.051L361.84 501.065C364.244 507.356 366.386 511.646 368.352 514.366C370.307 517.069 372.172 518.334 374.041 518.305C375.893 518.276 377.52 516.976 379.002 515.159C380.499 513.324 381.949 510.835 383.421 508.193C383.701 507.689 383.983 507.18 384.266 506.667C385.477 504.475 386.719 502.228 388.043 500.153C389.677 497.591 391.411 495.334 393.32 493.799C395.22 492.272 397.266 491.48 399.557 491.781C401.83 492.08 404.433 493.466 407.444 496.476C407.301 503.148 408.431 511.659 410.061 521.006C411.031 526.569 412.183 532.451 413.354 538.433C414.171 542.606 414.998 546.827 415.779 551.021C417.682 561.244 419.319 571.333 419.917 580.298C420.515 589.275 420.065 597.059 417.842 602.703C409.405 624.122 391.183 635.778 373.712 635.78C356.278 635.783 339.462 624.178 333.795 598.777C332.336 592.239 331.517 580.295 331.052 568.375C330.592 556.548 330.483 544.794 330.439 538.478C332.811 533.854 335.075 526.263 337.357 518.261C337.629 517.31 337.901 516.352 338.173 515.393C340.219 508.186 342.298 500.86 344.51 495.134C345.764 491.887 347.048 489.19 348.373 487.33C349.717 485.444 350.999 484.56 352.226 484.617C353.461 484.675 354.916 485.697 356.572 488.361C358.21 490.997 359.959 495.107 361.83 501.037Z" fill="white" stroke="black"/>
<path d="M346.055 485.026L346.057 485.025C346.484 484.816 346.991 484.542 347.557 484.237C349.116 483.396 351.125 482.311 353.164 481.641C354.543 481.188 355.874 480.949 357.025 481.093C358.113 481.229 359.047 481.707 359.739 482.713C359.925 488.443 358.864 492.598 357.601 497.063C357.511 497.38 357.421 497.699 357.329 498.019C356.127 502.243 354.815 506.849 354.292 513.315C346.24 531.128 345.103 549.522 344.5 567.747C344.45 569.27 344.403 570.791 344.356 572.31C343.847 588.913 343.343 605.318 338.074 621.103C324.599 620.871 316.016 619.954 310.843 618.155C308.24 617.25 306.552 616.14 305.528 614.828C304.514 613.527 304.112 611.975 304.188 610.095C304.265 608.201 304.827 605.997 305.722 603.433C306.575 600.986 307.719 598.246 309.004 595.17L309.186 594.733C311.896 588.242 315.165 580.328 317.527 570.775C320.493 563.764 321.735 555.852 322.447 547.717C322.766 544.059 322.979 540.347 323.192 536.648C323.216 536.224 323.24 535.801 323.265 535.378C323.503 531.256 323.755 527.157 324.169 523.154C325.823 507.137 330.043 492.809 346.055 485.026Z" fill="white" stroke="black"/>
<path d="M395.57 415.429L374.436 404.358L345.251 408.887L339.213 435.557L354.244 434.978L358.443 425.18V434.816L365.378 434.55L369.405 418.951L371.92 435.557L396.577 435.053L395.57 415.429Z" fill="black"/>
<path d="M383.106 498.384C387.057 497.805 389.205 496.158 390.281 493.912C391.376 491.625 391.304 488.813 391.142 486.214C391.122 485.894 391.1 485.576 391.079 485.263C391.013 484.284 390.949 483.342 390.939 482.45C390.926 481.273 391.009 480.235 391.284 479.378C391.555 478.535 392.008 477.88 392.743 477.434C393.49 476.981 394.582 476.711 396.186 476.752L396.234 476.753L396.282 476.745C416.085 473.414 428.738 477.912 434.634 487.279C440.554 496.684 439.826 511.23 432.291 528.363C428.751 535.404 429.247 543.126 431.482 550.919C433.435 557.726 436.734 564.652 439.899 571.295C440.356 572.254 440.81 573.207 441.257 574.153C444.816 581.688 447.9 588.747 448.42 594.866C448.678 597.911 448.298 600.695 447.042 603.179C445.791 605.652 443.65 607.868 440.314 609.751C437.858 610.657 435.15 612.036 432.347 613.505C431.971 613.702 431.593 613.901 431.213 614.101C428.738 615.402 426.197 616.738 423.662 617.876C417.848 620.487 412.263 621.961 407.768 619.754C400.207 600.685 396.276 580.253 393.109 559.578C392.279 554.16 391.501 548.723 390.724 543.29C388.555 528.132 386.39 513.002 383.106 498.384Z" fill="white" stroke="black"/>
<path d="M423.97 619.818L423.919 619.369L423.466 619.375C422.14 619.393 421.101 620.236 420.226 620.947C420.207 620.962 420.188 620.978 420.168 620.993C419.217 621.766 418.434 622.376 417.487 622.389C416.392 622.403 415.655 621.964 415.277 621.464C414.888 620.948 414.896 620.419 415.136 620.102C419.006 614.993 423.558 610.626 429.289 607.886L429.077 607.443L429.289 607.886C432.307 606.442 434.072 604.209 435.485 601.769C436.037 600.815 436.541 599.819 437.043 598.828C437.179 598.56 437.315 598.291 437.451 598.024C438.095 596.765 438.761 595.523 439.561 594.346C440.964 592.281 443.264 591.303 445.124 591.607C446.043 591.757 446.861 592.218 447.443 593.027C448.027 593.838 448.401 595.038 448.349 596.709C448.257 597.704 447.985 598.673 447.546 599.57L447.54 599.582L447.535 599.595C445.819 603.671 443.913 607.666 442.003 611.672L436.802 622.577C434.278 627.869 431.688 633.204 427.527 637.119C425.831 631.469 424.64 625.68 423.97 619.818Z" stroke="black"/>
<path d="M463.613 570.286L463.606 570.31L463.602 570.333C463.307 572.084 459.584 589.708 458.652 593.598C458.317 594.996 458.153 596.417 458.02 597.817C457.992 598.109 457.965 598.401 457.939 598.691C457.838 599.799 457.739 600.889 457.572 601.971C457.15 604.7 456.215 607.401 454.219 609.102L454.208 609.111L454.197 609.122C453.991 609.32 453.738 609.463 453.463 609.537C453.12 609.598 452.793 609.45 452.458 609.071C452.115 608.682 451.836 608.123 451.639 607.583L451.587 607.441C450.318 603.973 448.997 600.362 446.701 597.346C444.438 594.373 441 591.967 437.176 591.839C436.98 591.256 436.903 590.638 436.952 590.023C437.009 589.3 437.239 588.601 437.621 587.984L437.63 587.97L437.638 587.955C437.996 587.28 438.44 586.65 438.913 586.001C438.97 585.924 439.027 585.846 439.084 585.767C439.5 585.198 439.932 584.608 440.309 583.984L440.313 583.977L440.317 583.97C441.395 582.048 442.129 579.951 442.485 577.776C444.36 567.917 442.471 557.712 437.19 549.178C435.955 547.143 434.461 545.276 432.746 543.625L432.747 543.625L432.742 543.62C431.972 542.899 431.147 542.234 430.339 541.584C430.167 541.446 429.996 541.308 429.827 541.171C428.855 540.383 427.923 539.595 427.105 538.7C424.567 535.692 423.033 531.966 422.716 528.043C422.407 524.075 422.513 520.085 423.032 516.138L423.033 516.129L423.034 516.121C423.794 508.229 424.771 500.324 425.899 492.473L425.901 492.459L425.902 492.445C425.984 491.484 426.232 490.545 426.635 489.67C427.331 488.381 428.421 487.882 429.875 487.215C429.967 487.173 430.061 487.13 430.156 487.086C434.526 491.627 438.868 496.18 442.225 501.437C442.633 502.076 443.276 503.392 444.098 505.245C444.915 507.087 445.897 509.428 446.981 512.092C449.15 517.421 451.727 524.033 454.22 530.51C455.937 534.971 457.613 539.366 459.088 543.234C459.755 544.983 460.381 546.625 460.951 548.116C461.866 550.509 462.637 552.516 463.202 553.956C463.485 554.676 463.717 555.257 463.89 555.676C463.976 555.884 464.049 556.056 464.108 556.185C464.156 556.293 464.214 556.416 464.268 556.495C464.837 557.335 465.123 558.555 465.199 559.985C465.274 561.404 465.139 562.972 464.917 564.456C464.517 567.131 463.844 569.479 463.656 570.133C463.635 570.205 463.62 570.257 463.613 570.286Z" fill="white" stroke="black"/>
<path d="M324.822 601.174L324.816 601.161L324.81 601.148C324.371 600.251 324.099 599.282 324.007 598.288C323.956 596.617 324.33 595.416 324.913 594.606C325.495 593.797 326.313 593.335 327.232 593.185C329.093 592.881 331.393 593.86 332.795 595.925C333.595 597.102 334.261 598.344 334.905 599.603C335.042 599.87 335.177 600.138 335.313 600.407C335.815 601.398 336.319 602.394 336.872 603.348C338.284 605.787 340.049 608.02 343.068 609.464L343.283 609.013L343.068 609.464C348.799 612.205 353.35 616.571 357.22 621.68C357.461 621.998 357.468 622.527 357.079 623.043C356.702 623.543 355.964 623.982 354.869 623.967C353.923 623.954 353.14 623.344 352.188 622.572C352.169 622.556 352.149 622.541 352.13 622.525C351.255 621.815 350.216 620.971 348.89 620.953L348.438 620.947L348.386 621.397C347.716 627.258 346.525 633.048 344.829 638.697C340.668 634.783 338.078 629.448 335.554 624.156L330.353 613.25C328.443 609.245 326.538 605.25 324.822 601.174Z" stroke="black"/>
<path d="M346.454 494.023L346.455 494.038L346.457 494.052C347.585 501.903 348.562 509.807 349.322 517.699L349.323 517.708L349.324 517.716C349.843 521.663 349.949 525.653 349.64 529.622C349.324 533.545 347.789 537.271 345.251 540.278C344.433 541.174 343.501 541.961 342.529 542.749C342.36 542.887 342.189 543.024 342.017 543.163C341.21 543.813 340.384 544.477 339.615 545.199L339.615 545.198L339.61 545.203C337.895 546.855 336.401 548.721 335.167 550.757C329.885 559.291 327.996 569.495 329.871 579.355C330.227 581.53 330.961 583.626 332.04 585.548L332.043 585.555L332.047 585.562C332.425 586.187 332.856 586.777 333.272 587.346C333.329 587.424 333.386 587.502 333.443 587.58C333.916 588.229 334.361 588.859 334.718 589.534L334.726 589.549L334.735 589.563C335.117 590.179 335.347 590.878 335.404 591.601C335.453 592.217 335.377 592.835 335.18 593.418C331.357 593.546 327.918 595.952 325.655 598.924C323.359 601.94 322.038 605.551 320.77 609.018L320.717 609.162C320.52 609.701 320.241 610.261 319.899 610.649C319.564 611.029 319.236 611.177 318.894 611.116C318.618 611.041 318.365 610.898 318.159 610.7L318.148 610.69L318.137 610.68C316.141 608.98 315.206 606.278 314.785 603.549C314.617 602.467 314.518 601.377 314.417 600.27C314.391 599.979 314.364 599.688 314.337 599.395C314.203 597.995 314.039 596.575 313.704 595.176C312.772 591.287 309.05 573.662 308.754 571.912L308.75 571.888L308.744 571.865C308.736 571.835 308.721 571.784 308.7 571.712C308.512 571.057 307.839 568.709 307.439 566.035C307.217 564.55 307.082 562.983 307.157 561.563C307.233 560.134 307.52 558.914 308.088 558.074C308.143 557.995 308.2 557.871 308.249 557.764C308.307 557.634 308.38 557.463 308.466 557.254C308.64 556.836 308.872 556.255 309.154 555.535C309.719 554.094 310.49 552.088 311.405 549.694C311.975 548.203 312.601 546.562 313.269 544.812C314.743 540.944 316.419 536.549 318.136 532.089C320.629 525.611 323.206 519 325.375 513.671C326.46 511.006 327.441 508.665 328.258 506.824C329.08 504.97 329.723 503.654 330.131 503.015C333.488 497.759 337.83 493.206 342.2 488.664C342.295 488.708 342.389 488.751 342.481 488.793C343.936 489.46 345.025 489.96 345.721 491.248C346.124 492.124 346.372 493.063 346.454 494.023Z" fill="white" stroke="black"/>
</svg>
